<svg width="386" height="16" viewBox="0 0 386 16" fill="none" xmlns="http://www.w3.org/2000/svg">
<path d="M9.80104 13.02V15H0.0610352V0.799951H9.62104V2.77995H2.30104V6.81995H8.64104V8.67995H2.30104V13.02H9.80104Z" fill="#212121"/>
<path d="M22.0118 0.799951L26.2918 12.18L30.5518 0.799951H32.9318L27.2518 15H25.3318L19.6318 0.799951H22.0118Z" fill="#212121"/>
<path d="M53.0792 13.24C51.8792 14.48 50.4992 15.1 48.9392 15.1C47.9925 15.1 47.1125 14.9066 46.2992 14.52C45.4858 14.12 44.7792 13.5866 44.1792 12.92C43.5792 12.2533 43.1058 11.48 42.7592 10.6C42.4258 9.71995 42.2592 8.79995 42.2592 7.83995C42.2592 6.87995 42.4258 5.96662 42.7592 5.09995C43.1058 4.23329 43.5792 3.47328 44.1792 2.81995C44.7792 2.16662 45.4925 1.65328 46.3192 1.27995C47.1458 0.893284 48.0458 0.699951 49.0192 0.699951C50.3792 0.699951 51.5192 0.986618 52.4392 1.55995C53.3592 2.11995 54.0525 2.86662 54.5192 3.79995L52.7992 5.03995C52.4125 4.26662 51.8792 3.68662 51.1992 3.29995C50.5192 2.91328 49.7725 2.71995 48.9592 2.71995C48.2925 2.71995 47.6858 2.86662 47.1392 3.15995C46.5925 3.43995 46.1258 3.81995 45.7392 4.29995C45.3525 4.76662 45.0525 5.31329 44.8392 5.93995C44.6392 6.56662 44.5392 7.21995 44.5392 7.89995C44.5392 8.61995 44.6525 9.29328 44.8792 9.91995C45.1192 10.5466 45.4392 11.0933 45.8392 11.56C46.2525 12.0266 46.7392 12.4 47.2992 12.68C47.8592 12.9466 48.4658 13.08 49.1192 13.08C49.8392 13.08 50.5258 12.9133 51.1792 12.58C51.8458 12.2466 52.4792 11.72 53.0792 11V9.47995H50.0992V7.81995H54.9592V15H53.0792V13.24Z" fill="#212121"/>
<path d="M76.2542 13.02V15H66.5142V0.799951H76.0742V2.77995H68.7542V6.81995H75.0942V8.67995H68.7542V13.02H76.2542Z" fill="#212121"/>
<path d="M89.8049 4.99995V15H87.5649V0.799951H89.3249L97.4449 11.04V0.819951H99.7049V15H97.8449L89.8049 4.99995Z" fill="#212121"/>
<path d="M111.897 15V0.799951H114.137V15H111.897Z" fill="#212121"/>
<path d="M130.526 0.799951H132.486L138.086 15H135.726L134.226 11.14H128.746L127.266 15H124.886L130.526 0.799951ZM133.786 9.47995L131.506 3.37995L129.146 9.47995H133.786Z" fill="#212121"/>
<path d="M170.559 4.13995C170.425 3.99328 170.232 3.83995 169.979 3.67995C169.725 3.50662 169.425 3.34662 169.079 3.19995C168.745 3.05328 168.372 2.93328 167.959 2.83995C167.559 2.74662 167.145 2.69995 166.719 2.69995C165.772 2.69995 165.072 2.87328 164.619 3.21995C164.179 3.56662 163.959 4.04662 163.959 4.65995C163.959 5.00662 164.025 5.29328 164.159 5.51995C164.305 5.73328 164.525 5.92662 164.819 6.09995C165.112 6.25995 165.479 6.40662 165.919 6.53995C166.359 6.65995 166.872 6.79328 167.459 6.93995C168.179 7.11328 168.825 7.30662 169.399 7.51995C169.985 7.73329 170.479 7.99328 170.879 8.29995C171.279 8.60662 171.585 8.98662 171.799 9.43995C172.025 9.87995 172.139 10.42 172.139 11.06C172.139 11.78 171.999 12.4 171.719 12.92C171.452 13.44 171.079 13.8666 170.599 14.2C170.132 14.52 169.585 14.76 168.959 14.92C168.332 15.0666 167.659 15.14 166.939 15.14C165.859 15.14 164.812 14.98 163.799 14.66C162.799 14.3266 161.892 13.8466 161.079 13.22L162.099 11.3C162.272 11.4733 162.519 11.6666 162.839 11.88C163.172 12.0933 163.552 12.2933 163.979 12.48C164.419 12.6533 164.892 12.8066 165.399 12.94C165.905 13.06 166.432 13.12 166.979 13.12C167.859 13.12 168.539 12.9666 169.019 12.66C169.499 12.3533 169.739 11.9 169.739 11.3C169.739 10.94 169.645 10.64 169.459 10.4C169.285 10.16 169.032 9.95329 168.699 9.77995C168.365 9.59329 167.959 9.42662 167.479 9.27995C166.999 9.13328 166.452 8.97995 165.839 8.81995C165.132 8.63329 164.512 8.43995 163.979 8.23995C163.459 8.02662 163.025 7.77328 162.679 7.47995C162.332 7.18662 162.065 6.84662 161.879 6.45995C161.705 6.05995 161.619 5.57995 161.619 5.01995C161.619 4.32662 161.752 3.71329 162.019 3.17995C162.285 2.63328 162.645 2.17995 163.099 1.81995C163.565 1.44662 164.112 1.16662 164.739 0.979951C165.365 0.793284 166.045 0.699951 166.779 0.699951C167.739 0.699951 168.625 0.853285 169.439 1.15995C170.252 1.46662 170.965 1.84662 171.579 2.29995L170.559 4.13995Z" fill="#212121"/>
<path d="M193.708 2.77995H188.988V15H186.728V2.77995H181.988V0.799951H193.708V2.77995Z" fill="#212121"/>
<path d="M204.612 15V0.799951H210.792C211.432 0.799951 212.018 0.933284 212.552 1.19995C213.098 1.46662 213.565 1.81995 213.952 2.25995C214.338 2.68662 214.638 3.17995 214.852 3.73995C215.078 4.28662 215.192 4.84662 215.192 5.41995C215.192 5.89995 215.125 6.35995 214.992 6.79995C214.858 7.23995 214.672 7.64662 214.432 8.01995C214.192 8.39329 213.898 8.71995 213.552 8.99995C213.205 9.26662 212.825 9.46662 212.412 9.59995L215.752 15H213.212L210.132 10.06H206.852V15H204.612ZM206.852 8.07995H210.772C211.092 8.07995 211.378 8.01328 211.632 7.87995C211.898 7.73328 212.125 7.53995 212.312 7.29995C212.498 7.04662 212.645 6.75995 212.752 6.43995C212.858 6.11995 212.912 5.77995 212.912 5.41995C212.912 5.05995 212.845 4.71995 212.712 4.39995C212.592 4.07995 212.425 3.79995 212.212 3.55995C212.012 3.31995 211.772 3.13328 211.492 2.99995C211.225 2.85328 210.945 2.77995 210.652 2.77995H206.852V8.07995Z" fill="#212121"/>
<path d="M236.574 13.02V15H226.834V0.799951H236.394V2.77995H229.074V6.81995H235.414V8.67995H229.074V13.02H236.574Z" fill="#212121"/>
<path d="M247.885 15V0.799951H250.125V13.02H257.745V15H247.885Z" fill="#212121"/>
<path d="M270.805 4.99995V15H268.565V0.799951H270.325L278.445 11.04V0.819951H280.705V15H278.845L270.805 4.99995Z" fill="#212121"/>
<path d="M292.897 15V0.799951H295.137V15H292.897Z" fill="#212121"/>
<path d="M307.346 15V0.819951H309.586V8.11995L316.266 0.799951H318.746L313.146 7.07995L319.066 15H316.566L311.766 8.45995L309.586 10.72V15H307.346Z" fill="#212121"/>
<path d="M334.688 15.1C333.674 15.1 332.748 14.9 331.908 14.5C331.081 14.0866 330.368 13.5466 329.768 12.88C329.168 12.2 328.701 11.4266 328.368 10.56C328.048 9.69329 327.888 8.80662 327.888 7.89995C327.888 6.95328 328.061 6.04662 328.408 5.17995C328.754 4.31328 329.228 3.54662 329.828 2.87995C330.441 2.21328 331.161 1.68662 331.988 1.29995C332.828 0.899951 333.741 0.699951 334.728 0.699951C335.741 0.699951 336.661 0.913285 337.488 1.33995C338.328 1.75328 339.041 2.29995 339.628 2.97995C340.228 3.65995 340.688 4.43328 341.008 5.29995C341.341 6.15328 341.508 7.02662 341.508 7.91995C341.508 8.86662 341.334 9.77328 340.988 10.64C340.654 11.5066 340.181 12.2733 339.568 12.94C338.954 13.5933 338.228 14.12 337.388 14.52C336.561 14.9066 335.661 15.1 334.688 15.1ZM330.168 7.89995C330.168 8.56662 330.274 9.21328 330.488 9.83995C330.701 10.4666 331.001 11.02 331.388 11.5C331.788 11.98 332.268 12.3666 332.828 12.66C333.388 12.94 334.014 13.08 334.708 13.08C335.428 13.08 336.061 12.9333 336.608 12.64C337.168 12.3333 337.641 11.9333 338.028 11.44C338.414 10.9466 338.708 10.3933 338.908 9.77995C339.108 9.16662 339.208 8.53995 339.208 7.89995C339.208 7.21995 339.101 6.57328 338.888 5.95995C338.674 5.33328 338.368 4.78662 337.968 4.31995C337.581 3.83995 337.108 3.45995 336.548 3.17995C336.001 2.88662 335.388 2.73995 334.708 2.73995C333.988 2.73995 333.348 2.89328 332.788 3.19995C332.228 3.49328 331.754 3.87995 331.368 4.35995C330.981 4.83995 330.681 5.39328 330.468 6.01995C330.268 6.63328 330.168 7.25995 330.168 7.89995Z" fill="#212121"/>
<path d="M353.199 0.799951L357.479 12.18L361.739 0.799951H364.119L358.439 15H356.519L350.819 0.799951H353.199Z" fill="#212121"/>
<path d="M377.823 0.799951H379.783L385.383 15H383.023L381.523 11.14H376.043L374.563 15H372.183L377.823 0.799951ZM381.083 9.47995L378.803 3.37995L376.443 9.47995H381.083Z" fill="#212121"/>
</svg>
