<svg width="386" height="16" fill="none" xmlns="http://www.w3.org/2000/svg"><path d="M9.801 13.02V15H.061V.8h9.56v1.98h-7.32v4.04h6.34v1.86h-6.34v4.34h7.5zM22.012.8l4.28 11.38L30.552.8h2.38L27.252 15h-1.92L19.632.8h2.38zM53.08 13.24c-1.2 1.24-2.58 1.86-4.14 1.86a6.07 6.07 0 01-2.64-.58 6.953 6.953 0 01-2.12-1.6 7.591 7.591 0 01-1.42-2.32c-.334-.88-.5-1.8-.5-2.76 0-.96.166-1.873.5-2.74a7.395 7.395 0 011.42-2.28 6.51 6.51 0 012.14-1.54 6.292 6.292 0 012.7-.58c1.36 0 2.5.287 3.42.86a5.423 5.423 0 012.08 2.24L52.8 5.04c-.387-.773-.92-1.353-1.6-1.74a4.453 4.453 0 00-2.24-.58c-.668 0-1.274.147-1.82.44a4.29 4.29 0 00-1.4 1.14 5.135 5.135 0 00-.9 1.64c-.2.627-.3 1.28-.3 1.96 0 .72.113 1.393.34 2.02.24.627.56 1.173.96 1.64.412.467.9.84 1.46 1.12.56.267 1.166.4 1.82.4a4.48 4.48 0 002.06-.5c.666-.333 1.3-.86 1.9-1.58V9.48H50.1V7.82h4.86V15h-1.88v-1.76zm23.174-.22V15h-9.74V.8h9.56v1.98h-7.32v4.04h6.34v1.86h-6.34v4.34h7.5zM89.805 5v10h-2.24V.8h1.76l8.12 10.24V.82h2.26V15h-1.86l-8.04-10zm22.092 10V.8h2.24V15h-2.24zM130.526.8h1.96l5.6 14.2h-2.36l-1.5-3.86h-5.48l-1.48 3.86h-2.38l5.64-14.2zm3.26 8.68l-2.28-6.1-2.36 6.1h4.64zm36.773-5.34a2.858 2.858 0 00-.58-.46 5.19 5.19 0 00-.9-.48 6.16 6.16 0 00-1.12-.36c-.4-.093-.814-.14-1.24-.14-.947 0-1.647.173-2.1.52-.44.347-.66.827-.66 1.44 0 .347.066.633.2.86.146.213.366.407.66.58.293.16.66.307 1.1.44.44.12.953.253 1.54.4.72.173 1.366.367 1.94.58.586.213 1.08.473 1.48.78.4.307.706.687.92 1.14.226.44.34.98.34 1.62 0 .72-.14 1.34-.42 1.86-.267.52-.64.947-1.12 1.28-.467.32-1.014.56-1.64.72-.627.147-1.3.22-2.02.22-1.08 0-2.127-.16-3.14-.48a9.173 9.173 0 01-2.72-1.44l1.02-1.92c.173.173.42.367.74.58.333.213.713.413 1.14.6.44.173.913.327 1.42.46.506.12 1.033.18 1.58.18.88 0 1.56-.153 2.04-.46.48-.307.72-.76.72-1.36 0-.36-.094-.66-.28-.9-.174-.24-.427-.447-.76-.62a6.262 6.262 0 00-1.22-.5 41.19 41.19 0 00-1.64-.46 19.543 19.543 0 01-1.86-.58 4.833 4.833 0 01-1.3-.76 3.073 3.073 0 01-.8-1.02c-.174-.4-.26-.88-.26-1.44 0-.693.133-1.307.4-1.84.266-.547.626-1 1.08-1.36a4.767 4.767 0 011.64-.84 7.111 7.111 0 012.04-.28c.96 0 1.846.153 2.66.46a8.82 8.82 0 012.14 1.14l-1.02 1.84zm23.149-1.36h-4.72V15h-2.26V2.78h-4.74V.8h11.72v1.98zM204.612 15V.8h6.18c.64 0 1.226.133 1.76.4.546.267 1.013.62 1.4 1.06.386.427.686.92.9 1.48a4.36 4.36 0 01.34 1.68c0 .48-.067.94-.2 1.38-.134.44-.32.847-.56 1.22-.24.373-.534.7-.88.98a3.747 3.747 0 01-1.14.6l3.34 5.4h-2.54l-3.08-4.94h-3.28V15h-2.24zm2.24-6.92h3.92c.32 0 .606-.067.86-.2a2.2 2.2 0 00.68-.58c.186-.253.333-.54.44-.86.106-.32.16-.66.16-1.02s-.067-.7-.2-1.02c-.12-.32-.287-.6-.5-.84-.2-.24-.44-.427-.72-.56a1.72 1.72 0 00-.84-.22h-3.8v5.3zm29.722 4.94V15h-9.74V.8h9.56v1.98h-7.32v4.04h6.34v1.86h-6.34v4.34h7.5zM247.885 15V.8h2.24v12.22h7.62V15h-9.86zm22.92-10v10h-2.24V.8h1.76l8.12 10.24V.82h2.26V15h-1.86l-8.04-10zm22.092 10V.8h2.24V15h-2.24zm14.449 0V.82h2.24v7.3l6.68-7.32h2.48l-5.6 6.28 5.92 7.92h-2.5l-4.8-6.54-2.18 2.26V15h-2.24zm27.342.1c-1.014 0-1.94-.2-2.78-.6a7.149 7.149 0 01-2.14-1.62 7.591 7.591 0 01-1.4-2.32 7.623 7.623 0 01-.48-2.66c0-.947.173-1.853.52-2.72a7.642 7.642 0 011.42-2.3 6.842 6.842 0 012.16-1.58c.84-.4 1.753-.6 2.74-.6 1.013 0 1.933.213 2.76.64.84.413 1.553.96 2.14 1.64a7.29 7.29 0 011.38 2.32c.333.853.5 1.727.5 2.62a7.27 7.27 0 01-.52 2.72 7.177 7.177 0 01-1.42 2.3 7.217 7.217 0 01-2.18 1.58 6.296 6.296 0 01-2.7.58zm-4.52-7.2c0 .667.106 1.313.32 1.94a5.37 5.37 0 00.9 1.66c.4.48.88.867 1.44 1.16.56.28 1.186.42 1.88.42.72 0 1.353-.147 1.9-.44a4.58 4.58 0 001.42-1.2c.386-.493.68-1.047.88-1.66.2-.613.3-1.24.3-1.88a5.87 5.87 0 00-.32-1.94 4.944 4.944 0 00-.92-1.64c-.387-.48-.86-.86-1.42-1.14a3.83 3.83 0 00-1.84-.44c-.72 0-1.36.153-1.92.46-.56.293-1.034.68-1.42 1.16a5.373 5.373 0 00-.9 1.66c-.2.613-.3 1.24-.3 1.88zM353.199.8l4.28 11.38L361.739.8h2.38l-5.68 14.2h-1.92l-5.7-14.2h2.38zm24.624 0h1.96l5.6 14.2h-2.36l-1.5-3.86h-5.48l-1.48 3.86h-2.38l5.64-14.2zm3.26 8.68l-2.28-6.1-2.36 6.1h4.64z" fill="#212121"/></svg>