<svg width="24" height="24" viewBox="0 0 24 24" fill="none" xmlns="http://www.w3.org/2000/svg">
<path d="M3.28933 11.4086L7.08276 12.8231L8.56154 17.581C8.62584 17.9024 9.01161 17.9667 9.26879 17.7738L11.3905 16.0379C11.5834 15.845 11.9049 15.845 12.1621 16.0379L15.9555 18.8026C16.2127 18.9954 16.5984 18.8669 16.6627 18.5454L19.4917 5.04339C19.556 4.72191 19.2345 4.40044 18.9131 4.52903L3.28933 10.5728C2.90356 10.7014 2.90356 11.28 3.28933 11.4086ZM8.36866 12.1159L15.8269 7.5509C15.9555 7.48661 16.0841 7.6795 15.9555 7.74379L9.84745 13.4661C9.65456 13.6589 9.46167 13.9161 9.46167 14.2376L9.26879 15.7807C9.26879 15.9736 8.94731 16.0379 8.88302 15.7807L8.11147 12.9517C7.91858 12.6302 8.04719 12.2445 8.36866 12.1159Z" fill="#212121" fill-opacity="0.7"/>
</svg>