<svg width="24" height="24" viewBox="0 0 24 24" fill="none" xmlns="http://www.w3.org/2000/svg">
<path d="M17.7896 5.52656C16.1598 3.90234 13.9866 3 11.6927 3C6.92378 3 3.06036 6.85 3.06036 11.6023C3.06036 13.1062 3.48293 14.6102 4.20732 15.8734L3 20.325L7.58781 19.1219C8.85549 19.7836 10.2439 20.1445 11.6927 20.1445C16.4616 20.1445 20.325 16.2945 20.325 11.5422C20.2646 9.31641 19.4195 7.15078 17.7896 5.52656ZM15.8579 14.6703C15.6768 15.1516 14.8317 15.6328 14.4091 15.693C14.0469 15.7531 13.564 15.7531 13.0811 15.6328C12.7793 15.5125 12.3567 15.3922 11.8738 15.1516C9.70061 14.2492 8.3122 12.0836 8.19146 11.9031C8.07073 11.7828 7.28598 10.7602 7.28598 9.67734C7.28598 8.59453 7.82927 8.11328 8.01037 7.87266C8.19146 7.63203 8.43293 7.63203 8.61402 7.63203C8.73476 7.63203 8.91585 7.63203 9.03658 7.63203C9.15731 7.63203 9.33841 7.57187 9.51951 7.99297C9.70061 8.41406 10.1232 9.49687 10.1835 9.55703C10.2439 9.67734 10.2439 9.79766 10.1835 9.91797C10.1232 10.0383 10.0628 10.1586 9.94207 10.2789C9.82134 10.3992 9.70061 10.5797 9.64024 10.6398C9.51951 10.7602 9.39878 10.8805 9.51951 11.0609C9.64024 11.3016 10.0628 11.9633 10.7268 12.5648C11.5719 13.2867 12.236 13.5273 12.4774 13.6477C12.7189 13.768 12.8396 13.7078 12.9604 13.5875C13.0811 13.4672 13.5037 12.9859 13.6244 12.7453C13.7451 12.5047 13.9262 12.5648 14.1073 12.625C14.2884 12.6852 15.375 13.2266 15.5561 13.3469C15.7976 13.4672 15.9183 13.5273 15.9787 13.5875C16.039 13.768 16.039 14.1891 15.8579 14.6703Z" fill="#212121" fill-opacity="0.7"/>
</svg>